<?xml version="1.0" encoding="UTF-8"?>
<svg width="591.09" height="221.64" version="1.1" viewBox="0 0 156.39 58.643" xmlns="http://www.w3.org/2000/svg" xmlns:cc="http://creativecommons.org/ns#" xmlns:dc="http://purl.org/dc/elements/1.1/" xmlns:osb="http://www.openswatchbook.org/uri/2009/osb" xmlns:rdf="http://www.w3.org/1999/02/22-rdf-syntax-ns#">
 <defs>
  <clipPath id="clipPath5173">
   <circle transform="scale(1,-1)" cx="6146.5" cy="-3780.5" r="790.21" fill="#fff" stroke="#ff7800" stroke-width="336.33"/>
  </clipPath>
 </defs>
 <metadata>
  <rdf:RDF>
   <cc:Work rdf:about="">
    <dc:format>image/svg+xml</dc:format>
    <dc:type rdf:resource="http://purl.org/dc/dcmitype/StillImage"/>
    <dc:title/>
   </cc:Work>
  </rdf:RDF>
 </metadata>
 <g transform="matrix(.28055 0 0 .27124 2.8913 3.8949)">
  <g transform="matrix(2.9096 0 0 2.9096 160.47 -169.84)">
   <path d="m6.2675 90.301a27.877 27.877 0 0 1-27.877 27.877 27.877 27.877 0 0 1-27.877-27.877 27.877 27.877 0 0 1 27.877-27.877 27.877 27.877 0 0 1 27.877 27.877z" fill="none" stroke="#ff7800" stroke-width="2.1"/>
   <g transform="matrix(.032695 0 0 -.032768 -222.86 213.37)" clip-path="url(#clipPath5173)" stroke-width="59.528">
    <g transform="translate(-29.195 -422.55)" stroke-width="59.528">
     <g>
      <path d="m5778.5 4662.3c-15.347 0-27.906-13.4-27.906-29.784v-327.66h39.521v317.72h1042.6v-635.65h-498.33v-299.53h166.63l2.6207 7.0199-50.016 12.633-13.847 129.66h404.56c15.328 0 27.882 13.413 27.882 29.796v766.01c0 16.384-12.554 29.784-27.882 29.784z" fill="#ff7800"/>
      <path d="m6716.5 4392.3c-30.002 0-54.515-24.672-54.515-54.807v-631.27c0-30.125 24.513-54.807 54.515-54.807h241.12c29.992 0 54.522 24.682 54.522 54.807v631.27c0 30.134-24.53 54.807-54.522 54.807zm-28.825-101.18h298.77v-541.69h-298.77z" fill="#ff7800"/>
      <path d="m6861.6 3705.7c0-13.649-11.001-24.726-24.574-24.726-13.573 0-24.588 11.077-24.588 24.726 0 13.63 11.015 24.707 24.588 24.707 13.573 0 24.574-11.077 24.574-24.707" fill="#fff"/>
      <path d="m6863.4 4325.9c0-4.0527-3.3261-7.3865-7.3721-7.3865h-45.841c-4.046 0-7.3721 3.3338-7.3721 7.3865 0 4.0672 3.3261 7.3769 7.3721 7.3769h45.841c4.046 0 7.3721-3.3097 7.3721-7.3769" fill="#ff9500"/>
     </g>
     <g transform="matrix(.56487 0 0 .5422 3659.2 3960.2)" stroke-width="107.56">
      <g transform="translate(3869.6 -951.96)" fill="#e9e9e7" stroke-width="107.56">
       <g transform="translate(-6642.6 -2217.8)" fill="#ff9500" stroke-width="107.56">
        <path d="m5711.7 3861.4c-9.5 0-17.24-7.73-17.24-17.24v-75.98c0-9.52 7.74-17.25 17.24-17.25h292.01c9.51 0 17.25 7.73 17.25 17.25v75.98c0 9.51-7.74 17.24-17.25 17.24zm292.01-144.96h-292.01c-28.52 0-51.73 23.21-51.73 51.74v75.98c0 28.53 23.21 51.73 51.73 51.73h292.01c28.53 0 51.74-23.2 51.74-51.73v-75.98c0-28.53-23.21-51.74-51.74-51.74"/>
        <path d="m7422.5 2824h-1218c-8.64 0-15.95 6.39-17.1 14.96l-127.33 951.38h-21.87c-9.52 0-17.24 7.72-17.24 17.25 0 9.52 7.72 17.24 17.24 17.24h36.96c8.64 0 15.95-6.39 17.09-14.96l127.34-951.38h1202.9c9.53 0 17.25-7.72 17.25-17.25 0-9.52-7.72-17.24-17.25-17.24"/>
        <path d="m7320.1 3059.8h-1137c-9.52 0-17.25 7.72-17.25 17.25 0 9.52 7.73 17.24 17.25 17.24h1123.2l131.52 585.17h-1345.7c-9.52 0-17.24 7.72-17.24 17.25 0 9.52 7.72 17.24 17.24 17.24h1367.2c5.24 0 10.19-2.38 13.47-6.47 3.27-4.09 4.51-9.44 3.36-14.55l-139.28-619.66c-1.77-7.87-8.76-13.47-16.82-13.47"/>
        <path d="m6385.8 3571.4c-33.28 0-60.36-27.08-60.36-60.36v-202.94c0-33.28 27.08-60.36 60.36-60.36h35.24c33.28 0 60.36 27.08 60.36 60.36v202.94c0 33.28-27.08 60.36-60.36 60.36zm35.24-358.15h-35.24c-52.3 0-94.85 42.55-94.85 94.85v202.94c0 52.3 42.55 94.85 94.85 94.85h35.24c52.3 0 94.85-42.55 94.85-94.85v-202.94c0-52.3-42.55-94.85-94.85-94.85"/>
        <path d="m6761 3571.4c-33.27 0-60.35-27.08-60.35-60.36v-202.94c0-33.28 27.08-60.36 60.35-60.36h35.24c33.28 0 60.36 27.08 60.36 60.36v202.94c0 33.28-27.08 60.36-60.36 60.36zm35.24-358.15h-35.24c-52.3 0-94.85 42.55-94.85 94.85v202.94c0 52.3 42.55 94.85 94.85 94.85h35.24c52.3 0 94.85-42.55 94.85-94.85v-202.94c0-52.3-42.55-94.85-94.85-94.85"/>
        <path d="m7136.2 3571.4c-33.27 0-60.35-27.08-60.35-60.36v-202.94c0-33.28 27.08-60.36 60.35-60.36h35.24c33.28 0 60.36 27.08 60.36 60.36v202.94c0 33.28-27.08 60.36-60.36 60.36zm35.24-358.15h-35.24c-52.3 0-94.85 42.55-94.85 94.85v202.94c0 52.3 42.55 94.85 94.85 94.85h35.24c52.3 0 94.85-42.55 94.85-94.85v-202.94c0-52.3-42.55-94.85-94.85-94.85"/>
        <path d="m6504.4 2806.8c-70.43 0-127.72-57.3-127.72-127.73s57.29-127.72 127.72-127.72 127.72 57.29 127.72 127.72-57.29 127.73-127.72 127.73zm0-289.94c-89.44 0-162.21 72.77-162.21 162.21 0 89.45 72.77 162.22 162.21 162.22s162.21-72.77 162.21-162.22c0-89.44-72.77-162.21-162.21-162.21"/>
        <path d="m7050.1 2806.8c-70.43 0-127.72-57.3-127.72-127.73s57.29-127.72 127.72-127.72 127.72 57.29 127.72 127.72-57.29 127.73-127.72 127.73zm0-289.94c-89.44 0-162.21 72.77-162.21 162.21 0 89.45 72.77 162.22 162.21 162.22s162.21-72.77 162.21-162.22c0-89.44-72.77-162.21-162.21-162.21"/>
       </g>
      </g>
     </g>
    </g>
   </g>
   <path d="m12.541 90.301a34.151 34.151 0 0 1-34.151 34.151 34.151 34.151 0 0 1-34.151-34.151 34.151 34.151 0 0 1 34.151-34.151 34.151 34.151 0 0 1 34.151 34.151z" fill="none" stroke="#fff" stroke-width="2.5726"/>
  </g>
  <g transform="scale(.99262 1.0074)" fill="#fff" stroke-width="1.5473" style="font-variant-caps:normal;font-variant-east-asian:normal;font-variant-ligatures:normal;font-variant-numeric:normal" aria-label="Frontend ">
   <path d="m216.5 44.176h28.656q0.37135 0 0.49513 0.30946 0.18568 0.24757-0.0619 0.55702l-4.58 6.0035q-0.80459 0.99027-2.0424 0.99027h-15.287v9.9027h15.473q0.7427 0 0.7427 0.7427v6.313q0 0.80459-0.7427 0.80459h-15.473v16.958q0 0.7427-0.8046 0.7427h-6.3748q-0.30946 0-0.55703-0.18568-0.18567-0.24757-0.18567-0.55702v-41.839q0-0.30946 0.18567-0.49513 0.24757-0.24757 0.55703-0.24757z" style="font-variant-caps:normal;font-variant-east-asian:normal;font-variant-ligatures:normal;font-variant-numeric:normal"/>
   <path d="m250.54 44.795q0-0.30946 0.18568-0.49513 0.24757-0.24757 0.55702-0.24757h32.679q0.30946 0 0.49514 0.24757 0.24756 0.18568 0.24756 0.49513v9.0981q0 0.86648-0.55702 1.5473l-9.7789 12.812 13.988 18.258q0.18568 0.30946 0 0.61892-0.12378 0.24757-0.43324 0.24757h-7.8602q-1.2378 0-2.0424-0.99027l-13.554-17.639q-0.43324-0.49513 0-0.92838l12.193-15.906h-18.196v34.721q0 0.7427-0.80459 0.7427h-6.3748q-0.30945 0-0.55702-0.18568-0.18568-0.24757-0.18568-0.55703z" style="font-variant-caps:normal;font-variant-east-asian:normal;font-variant-ligatures:normal;font-variant-numeric:normal"/>
   <path d="m289.47 65.652q0-4.7657 1.733-8.8505 1.7949-4.1467 4.7657-7.1175 3.0327-3.0327 7.1176-4.7038 4.0848-1.733 8.7886-1.6711 4.7038 0.06189 8.7886 1.8568 4.0848 1.7949 7.0556 4.8894 3.0327 3.0946 4.7657 7.2413 1.733 4.0849 1.6711 8.7267-0.0619 4.7038-1.8568 8.7886-1.7949 4.0849-4.8894 7.1175-3.0327 3.0327-7.1175 4.7657-4.0848 1.6711-8.7886 1.6711-4.6419 0-8.7267-1.733-4.023-1.7949-6.9938-4.8276-2.9708-3.0946-4.6419-7.2413-1.6711-4.1467-1.6711-8.9124zm7.9221 0.30946q0 3.0327 1.1759 5.7559 1.1759 2.7232 3.1565 4.7657 1.9805 2.0424 4.58 3.2184 2.5995 1.1759 5.5703 1.1759 2.9089-0.06189 5.5084-1.2997 2.5994-1.2378 4.5181-3.2803 1.9805-2.1043 3.0946-4.8276 1.114-2.7851 1.0522-5.8178 0-3.0327-1.176-5.7559-1.1759-2.7232-3.1565-4.7038-1.9805-2.0424-4.6419-3.2184-2.5994-1.1759-5.5084-1.1759-2.9089 0.06189-5.5084 1.2997-2.5994 1.1759-4.5181 3.2803-1.9186 2.0424-3.0327 4.7657-1.114 2.7232-1.114 5.8178z" style="font-variant-caps:normal;font-variant-east-asian:normal;font-variant-ligatures:normal;font-variant-numeric:normal"/>
   <path d="m341.27 86.757v-41.839q0-0.30946 0.18567-0.49513 0.24757-0.24757 0.55703-0.24757h5.8797q1.2378 0 2.0424 0.99027l22.281 28.965v-29.213q0-0.7427 0.7427-0.7427h6.3748q0.7427 0 0.7427 0.7427v41.839q0 0.7427-0.7427 0.7427h-5.8797q-1.2378 0-2.0424-0.99027l-22.219-28.965v29.213q0 0.7427-0.80459 0.7427h-6.3748q-0.30946 0-0.55703-0.18568-0.18567-0.24757-0.18567-0.55702z" style="font-variant-caps:normal;font-variant-east-asian:normal;font-variant-ligatures:normal;font-variant-numeric:normal"/>
   <path d="m386.82 44.795q0-0.30946 0.18567-0.49513 0.24757-0.24757 0.55703-0.24757h26.861q1.2378 0 2.0424 0.99027l4.58 6.0035q0.24756 0.30946 0.0619 0.61892-0.12378 0.24757-0.49513 0.24757h-13.802v34.721q0 0.7427-0.7427 0.7427h-6.3749q-0.7427 0-0.7427-0.7427v-34.721h-11.388q-0.30946 0-0.55703-0.18568-0.18567-0.24757-0.18567-0.55702z" style="font-variant-caps:normal;font-variant-east-asian:normal;font-variant-ligatures:normal;font-variant-numeric:normal"/>
   <path d="m426 44.919q0-0.30946 0.18568-0.49513 0.24756-0.24757 0.55702-0.24757h26.737q0.7427 0 0.7427 0.7427v6.3748q0 0.7427-0.7427 0.7427h-19.558v9.9027h15.473q0.7427 0 0.7427 0.7427v6.313q0 0.80459-0.7427 0.80459h-15.473v9.8408h21.476q0.37135 0 0.49513 0.30946 0.18568 0.30946-0.0619 0.55702l-4.58 6.0035q-0.8046 0.99027-2.0424 0.99027h-22.467q-0.30946 0-0.55702-0.18568-0.18568-0.24757-0.18568-0.55702z" style="font-variant-caps:normal;font-variant-east-asian:normal;font-variant-ligatures:normal;font-variant-numeric:normal"/>
   <path d="m461.9 86.757v-41.839q0-0.30946 0.18567-0.49513 0.24757-0.24757 0.55703-0.24757h5.8797q1.2378 0 2.0424 0.99027l22.281 28.965v-29.213q0-0.7427 0.7427-0.7427h6.3748q0.7427 0 0.7427 0.7427v41.839q0 0.7427-0.7427 0.7427h-5.8797q-1.2378 0-2.0424-0.99027l-22.219-28.965v29.213q0 0.7427-0.80459 0.7427h-6.3748q-0.30946 0-0.55703-0.18568-0.18567-0.24757-0.18567-0.55702z" style="font-variant-caps:normal;font-variant-east-asian:normal;font-variant-ligatures:normal;font-variant-numeric:normal"/>
   <path d="m509.62 44.919q0-0.30946 0.18567-0.49513 0.24757-0.24757 0.55703-0.24757h13.802q4.4562 0 8.3554 1.6711 3.8992 1.6711 6.8081 4.58 2.9089 2.847 4.6419 6.7462 1.7949 3.8373 1.8568 8.2316 0.12378 4.58-1.6711 8.6029-1.733 4.023-4.7657 7.0557-3.0327 2.9708-7.1175 4.7038-4.023 1.733-8.603 1.733h-13.307q-0.30946 0-0.55703-0.18568-0.18567-0.24757-0.18567-0.55702zm7.9221 34.721h6.6224q2.847 0 5.3227-1.0522 2.5376-1.114 4.3943-2.9708 1.9186-1.9186 2.9708-4.3943 1.1141-2.5376 1.1141-5.3846t-1.1141-5.3227q-1.0522-2.5376-2.9708-4.3943-1.8568-1.9186-4.3943-2.9708-2.4757-1.114-5.3227-1.114h-6.6224z" style="font-variant-caps:normal;font-variant-east-asian:normal;font-variant-ligatures:normal;font-variant-numeric:normal"/>
  </g>
  <g transform="scale(.90906 1.1)" fill="#fff" stroke-width="1.1384" style="font-variant-caps:normal;font-variant-east-asian:normal;font-variant-ligatures:normal;font-variant-numeric:normal" aria-label="Online Store">
   <path d="m234.27 109.88q0-3.5064 1.275-6.5118 1.3206-3.051 3.5064-5.2368 2.2313-2.2313 5.2368-3.4608 3.0054-1.275 6.4663-1.2295 3.4608 0.04554 6.4663 1.3661 3.0054 1.3206 5.1912 3.5974 2.2313 2.2769 3.5064 5.3278 1.275 3.0054 1.2295 6.4207-0.0455 3.4608-1.3661 6.4663-1.3206 3.0054-3.5974 5.2368-2.2313 2.2313-5.2368 3.5064-3.0054 1.2295-6.4663 1.2295-3.4153 0-6.4207-1.275-2.9599-1.3206-5.1457-3.5519-2.1858-2.2768-3.4153-5.3278-1.2295-3.051-1.2295-6.5573zm5.8288 0.22769q0 2.2313 0.8652 4.235 0.86521 2.0036 2.3224 3.5064 1.4572 1.5027 3.3698 2.3679 1.9126 0.86521 4.0983 0.86521 2.1402-0.0455 4.0528-0.95628 1.9126-0.91074 3.3242-2.4135 1.4572-1.5483 2.2768-3.5519 0.81967-2.0492 0.77413-4.2805 0-2.2313-0.8652-4.235-0.86521-2.0036-2.3224-3.4608-1.4572-1.5027-3.4153-2.3679-1.9126-0.8652-4.0528-0.8652-2.1402 0.04554-4.0528 0.95628-1.9126 0.8652-3.3242 2.4135-1.4116 1.5027-2.2313 3.5064-0.81966 2.0036-0.81966 4.2805z" style="font-variant-caps:normal;font-variant-east-asian:normal;font-variant-ligatures:normal;font-variant-numeric:normal"/>
   <path d="m272.38 125.4v-30.783q0-0.22769 0.13662-0.3643 0.18214-0.18215 0.40983-0.18215h4.326q0.91075 0 1.5027 0.72859l16.393 21.311v-21.494q0-0.54644 0.54644-0.54644h4.6903q0.54645 0 0.54645 0.54644v30.783q0 0.54645-0.54645 0.54645h-4.326q-0.91074 0-1.5027-0.7286l-16.348-21.311v21.494q0 0.54645-0.59198 0.54645h-4.6903q-0.22769 0-0.40983-0.13661-0.13662-0.18215-0.13662-0.40984z" style="font-variant-caps:normal;font-variant-east-asian:normal;font-variant-ligatures:normal;font-variant-numeric:normal"/>
   <path d="m308.04 94.075h4.6903q0.59198 0 0.59198 0.54644v25.546h12.75q0.27322 0 0.36429 0.22769 0.13661 0.22769 0 0.40983l-3.4153 4.4171q-0.59198 0.7286-1.4572 0.7286h-13.525q-0.22768 0-0.40983-0.13661-0.13661-0.18215-0.13661-0.40984v-30.783q0-0.22769 0.13661-0.3643 0.18215-0.18215 0.40983-0.18215z" style="font-variant-caps:normal;font-variant-east-asian:normal;font-variant-ligatures:normal;font-variant-numeric:normal"/>
   <path d="m330.58 94.075h4.6903q0.59198 0 0.59198 0.54644v30.783q0 0.54645-0.59198 0.54645h-4.6903q-0.22768 0-0.40983-0.13661-0.13661-0.18215-0.13661-0.40984v-30.783q0-0.22769 0.13661-0.3643 0.18215-0.18215 0.40983-0.18215z" style="font-variant-caps:normal;font-variant-east-asian:normal;font-variant-ligatures:normal;font-variant-numeric:normal"/>
   <path d="m342.42 125.4v-30.783q0-0.22769 0.13661-0.3643 0.18215-0.18215 0.40983-0.18215h4.326q0.91074 0 1.5027 0.72859l16.393 21.311v-21.494q0-0.54644 0.54644-0.54644h4.6903q0.54644 0 0.54644 0.54644v30.783q0 0.54645-0.54644 0.54645h-4.326q-0.91074 0-1.5027-0.7286l-16.348-21.311v21.494q0 0.54645-0.59198 0.54645h-4.6903q-0.22768 0-0.40983-0.13661-0.13661-0.18215-0.13661-0.40984z" style="font-variant-caps:normal;font-variant-east-asian:normal;font-variant-ligatures:normal;font-variant-numeric:normal"/>
   <path d="m377.53 94.622q0-0.22769 0.13661-0.3643 0.18215-0.18215 0.40983-0.18215h19.672q0.54645 0 0.54645 0.54644v4.6903q0 0.54645-0.54645 0.54645h-14.39v7.2859h11.384q0.54645 0 0.54645 0.54645v4.6448q0 0.59199-0.54645 0.59199h-11.384v7.2404h15.801q0.27322 0 0.3643 0.22769 0.13661 0.22769-0.0455 0.40983l-3.3697 4.4171q-0.59199 0.7286-1.5027 0.7286h-16.53q-0.22768 0-0.40983-0.13661-0.13661-0.18215-0.13661-0.40984z" style="font-variant-caps:normal;font-variant-east-asian:normal;font-variant-ligatures:normal;font-variant-numeric:normal"/>
   <path d="m415 103.41q0-2.1402 0.8652-3.9617 0.91074-1.8215 2.4135-3.1421 1.5483-1.3206 3.5519-2.0947 2.0492-0.77413 4.326-0.77413 3.5519 0 6.1475 1.275 2.6412 1.2295 3.9617 2.8688 0.31876 0.40983-0.0455 0.72859l-3.1421 3.2787q-0.18215 0.18215-0.45538 0.18215-0.22768 0-0.40983-0.22769-0.40983-0.45537-1.0474-0.91074-0.59199-0.45537-1.4116-0.81967-0.77413-0.40983-1.6849-0.63752-0.91074-0.22769-1.867-0.22769-1.1384 0-2.0947 0.3643-0.91075 0.31876-1.5483 0.86521-0.63751 0.54644-1.0018 1.275-0.3643 0.72859-0.3643 1.5483 0 1.3206 0.86521 2.2768 0.8652 0.95628 2.5956 1.3206l4.4626 0.8652q2.1858 0.40984 3.8251 1.3206 1.6849 0.8652 2.7778 2.0947 1.1384 1.2295 1.7304 2.7778 0.59198 1.5027 0.59198 3.1876 0 1.8215-0.77413 3.5974-0.72859 1.7759-2.2313 3.1876-1.4572 1.4116-3.5974 2.2769-2.1402 0.81967-4.918 0.81967-1.9581 0-3.6885-0.40984-1.6849-0.40983-3.0965-1.0474-1.3661-0.68306-2.4135-1.4572-1.0474-0.81966-1.7304-1.5938-0.31876-0.31876 0-0.72859l2.8688-3.6885q0.13661-0.22769 0.36429-0.22769 0.27323-0.0455 0.45537 0.13661 0.63752 0.59198 1.4116 1.2295 0.77413 0.59199 1.6849 1.0929 0.91074 0.50091 1.9581 0.81967 1.0474 0.31876 2.2313 0.31876 2.5045 0 3.8251-1.0929 1.3206-1.0929 1.3206-2.8233 0-1.3661-1.0018-2.3679-0.95628-1.0474-2.8688-1.4116l-4.4626-0.91074q-3.8251-0.77413-6.102-3.1421-2.2768-2.3679-2.2768-6.0109z" style="font-variant-caps:normal;font-variant-east-asian:normal;font-variant-ligatures:normal;font-variant-numeric:normal"/>
   <path d="m441.1 94.531q0-0.22769 0.13661-0.3643 0.18215-0.18215 0.40983-0.18215h19.763q0.91075 0 1.5027 0.72859l3.3697 4.4171q0.18215 0.22768 0.0455 0.45537-0.0911 0.18215-0.3643 0.18215h-10.155v25.546q0 0.54644-0.54644 0.54644h-4.6903q-0.54644 0-0.54644-0.54644v-25.546h-8.3788q-0.22768 0-0.40983-0.13661-0.13661-0.18215-0.13661-0.40983z" style="font-variant-caps:normal;font-variant-east-asian:normal;font-variant-ligatures:normal;font-variant-numeric:normal"/>
   <path d="m468.65 109.88q0-3.5064 1.275-6.5118 1.3206-3.051 3.5064-5.2368 2.2313-2.2313 5.2368-3.4608 3.0054-1.275 6.4663-1.2295 3.4608 0.04554 6.4663 1.3661 3.0054 1.3206 5.1912 3.5974 2.2313 2.2769 3.5064 5.3278 1.275 3.0054 1.2295 6.4207-0.0455 3.4608-1.3661 6.4663-1.3206 3.0054-3.5974 5.2368-2.2313 2.2313-5.2368 3.5064-3.0054 1.2295-6.4663 1.2295-3.4153 0-6.4207-1.275-2.9599-1.3206-5.1457-3.5519-2.1858-2.2768-3.4153-5.3278-1.2295-3.051-1.2295-6.5573zm5.8288 0.22769q0 2.2313 0.8652 4.235 0.86521 2.0036 2.3224 3.5064 1.4572 1.5027 3.3698 2.3679 1.9126 0.86521 4.0983 0.86521 2.1402-0.0455 4.0528-0.95628 1.9126-0.91074 3.3242-2.4135 1.4572-1.5483 2.2768-3.5519 0.81967-2.0492 0.77413-4.2805 0-2.2313-0.8652-4.235-0.86521-2.0036-2.3224-3.4608-1.4572-1.5027-3.4153-2.3679-1.9126-0.8652-4.0528-0.8652-2.1402 0.04554-4.0528 0.95628-1.9126 0.8652-3.3242 2.4135-1.4116 1.5027-2.2313 3.5064-0.81966 2.0036-0.81966 4.2805z" style="font-variant-caps:normal;font-variant-east-asian:normal;font-variant-ligatures:normal;font-variant-numeric:normal"/>
   <path d="m506.76 94.531q0-0.22769 0.13661-0.3643 0.18215-0.18215 0.40984-0.18215h24.044q0.22768 0 0.36429 0.18215 0.18215 0.13661 0.18215 0.3643v6.694q0 0.63752-0.40983 1.1384l-7.1949 9.4262 10.291 13.433q0.13661 0.22769 0 0.45537-0.0911 0.18215-0.31876 0.18215h-5.7832q-0.91074 0-1.5027-0.72859l-9.9726-12.978q-0.31876-0.3643 0-0.68306l8.9708-11.703h-13.388v25.546q0 0.54644-0.59198 0.54644h-4.6903q-0.22769 0-0.40984-0.13661-0.13661-0.18215-0.13661-0.40983z" style="font-variant-caps:normal;font-variant-east-asian:normal;font-variant-ligatures:normal;font-variant-numeric:normal"/>
   <path d="m538.32 94.622q0-0.22769 0.13661-0.3643 0.18215-0.18215 0.40984-0.18215h19.672q0.54645 0 0.54645 0.54644v4.6903q0 0.54645-0.54645 0.54645h-14.39v7.2859h11.384q0.54644 0 0.54644 0.54645v4.6448q0 0.59199-0.54644 0.59199h-11.384v7.2404h15.801q0.27322 0 0.36429 0.22769 0.13661 0.22769-0.0455 0.40983l-3.3697 4.4171q-0.59198 0.7286-1.5027 0.7286h-16.53q-0.22769 0-0.40984-0.13661-0.13661-0.18215-0.13661-0.40984z" style="font-variant-caps:normal;font-variant-east-asian:normal;font-variant-ligatures:normal;font-variant-numeric:normal"/>
  </g>
 </g>
</svg>
