<?xml version="1.0" encoding="UTF-8"?>
<svg width="591.09" height="221.64" version="1.1" viewBox="0 0 156.39 58.643" xmlns="http://www.w3.org/2000/svg" xmlns:cc="http://creativecommons.org/ns#" xmlns:dc="http://purl.org/dc/elements/1.1/" xmlns:osb="http://www.openswatchbook.org/uri/2009/osb" xmlns:rdf="http://www.w3.org/1999/02/22-rdf-syntax-ns#">
 <defs>
  <clipPath id="clipPath5173">
   <circle transform="scale(1,-1)" cx="6146.5" cy="-3780.5" r="790.21" fill="#fff" stroke="#ff7800" stroke-width="336.33"/>
  </clipPath>
 </defs>
 <metadata>
  <rdf:RDF>
   <cc:Work rdf:about="">
    <dc:format>image/svg+xml</dc:format>
    <dc:type rdf:resource="http://purl.org/dc/dcmitype/StillImage"/>
    <dc:title/>
   </cc:Work>
  </rdf:RDF>
 </metadata>
 <g transform="matrix(.28055 0 0 .27124 2.8913 3.8949)">
  <g transform="matrix(2.9096 0 0 2.9096 160.47 -169.84)">
   <path d="m6.2675 90.301a27.877 27.877 0 0 1-27.877 27.877 27.877 27.877 0 0 1-27.877-27.877 27.877 27.877 0 0 1 27.877-27.877 27.877 27.877 0 0 1 27.877 27.877z" fill="none" stroke="#ff7800" stroke-width="2.1"/>
   <g transform="matrix(.032695 0 0 -.032768 -222.86 213.37)" clip-path="url(#clipPath5173)" stroke-width="59.528">
    <g transform="translate(-29.195 -422.55)" stroke-width="59.528">
     <g>
      <path d="m5778.5 4662.3c-15.347 0-27.906-13.4-27.906-29.784v-327.66h39.521v317.72h1042.6v-635.65h-498.33v-299.53h166.63l2.6207 7.0199-50.016 12.633-13.847 129.66h404.56c15.328 0 27.882 13.413 27.882 29.796v766.01c0 16.384-12.554 29.784-27.882 29.784z" fill="#ff7800"/>
      <path d="m6716.5 4392.3c-30.002 0-54.515-24.672-54.515-54.807v-631.27c0-30.125 24.513-54.807 54.515-54.807h241.12c29.992 0 54.522 24.682 54.522 54.807v631.27c0 30.134-24.53 54.807-54.522 54.807zm-28.825-101.18h298.77v-541.69h-298.77z" fill="#ff7800"/>
      <path d="m6861.6 3705.7c0-13.649-11.001-24.726-24.574-24.726-13.573 0-24.588 11.077-24.588 24.726 0 13.63 11.015 24.707 24.588 24.707 13.573 0 24.574-11.077 24.574-24.707" fill="#fff"/>
      <path d="m6863.4 4325.9c0-4.0527-3.3261-7.3865-7.3721-7.3865h-45.841c-4.046 0-7.3721 3.3338-7.3721 7.3865 0 4.0672 3.3261 7.3769 7.3721 7.3769h45.841c4.046 0 7.3721-3.3097 7.3721-7.3769" fill="#ff9500"/>
     </g>
     <g transform="matrix(.56487 0 0 .5422 3659.2 3960.2)" stroke-width="107.56">
      <g transform="translate(3869.6 -951.96)" fill="#e9e9e7" stroke-width="107.56">
       <g transform="translate(-6642.6 -2217.8)" fill="#ff9500" stroke-width="107.56">
        <path d="m5711.7 3861.4c-9.5 0-17.24-7.73-17.24-17.24v-75.98c0-9.52 7.74-17.25 17.24-17.25h292.01c9.51 0 17.25 7.73 17.25 17.25v75.98c0 9.51-7.74 17.24-17.25 17.24zm292.01-144.96h-292.01c-28.52 0-51.73 23.21-51.73 51.74v75.98c0 28.53 23.21 51.73 51.73 51.73h292.01c28.53 0 51.74-23.2 51.74-51.73v-75.98c0-28.53-23.21-51.74-51.74-51.74"/>
        <path d="m7422.5 2824h-1218c-8.64 0-15.95 6.39-17.1 14.96l-127.33 951.38h-21.87c-9.52 0-17.24 7.72-17.24 17.25 0 9.52 7.72 17.24 17.24 17.24h36.96c8.64 0 15.95-6.39 17.09-14.96l127.34-951.38h1202.9c9.53 0 17.25-7.72 17.25-17.25 0-9.52-7.72-17.24-17.25-17.24"/>
        <path d="m7320.1 3059.8h-1137c-9.52 0-17.25 7.72-17.25 17.25 0 9.52 7.73 17.24 17.25 17.24h1123.2l131.52 585.17h-1345.7c-9.52 0-17.24 7.72-17.24 17.25 0 9.52 7.72 17.24 17.24 17.24h1367.2c5.24 0 10.19-2.38 13.47-6.47 3.27-4.09 4.51-9.44 3.36-14.55l-139.28-619.66c-1.77-7.87-8.76-13.47-16.82-13.47"/>
        <path d="m6385.8 3571.4c-33.28 0-60.36-27.08-60.36-60.36v-202.94c0-33.28 27.08-60.36 60.36-60.36h35.24c33.28 0 60.36 27.08 60.36 60.36v202.94c0 33.28-27.08 60.36-60.36 60.36zm35.24-358.15h-35.24c-52.3 0-94.85 42.55-94.85 94.85v202.94c0 52.3 42.55 94.85 94.85 94.85h35.24c52.3 0 94.85-42.55 94.85-94.85v-202.94c0-52.3-42.55-94.85-94.85-94.85"/>
        <path d="m6761 3571.4c-33.27 0-60.35-27.08-60.35-60.36v-202.94c0-33.28 27.08-60.36 60.35-60.36h35.24c33.28 0 60.36 27.08 60.36 60.36v202.94c0 33.28-27.08 60.36-60.36 60.36zm35.24-358.15h-35.24c-52.3 0-94.85 42.55-94.85 94.85v202.94c0 52.3 42.55 94.85 94.85 94.85h35.24c52.3 0 94.85-42.55 94.85-94.85v-202.94c0-52.3-42.55-94.85-94.85-94.85"/>
        <path d="m7136.2 3571.4c-33.27 0-60.35-27.08-60.35-60.36v-202.94c0-33.28 27.08-60.36 60.35-60.36h35.24c33.28 0 60.36 27.08 60.36 60.36v202.94c0 33.28-27.08 60.36-60.36 60.36zm35.24-358.15h-35.24c-52.3 0-94.85 42.55-94.85 94.85v202.94c0 52.3 42.55 94.85 94.85 94.85h35.24c52.3 0 94.85-42.55 94.85-94.85v-202.94c0-52.3-42.55-94.85-94.85-94.85"/>
        <path d="m6504.4 2806.8c-70.43 0-127.72-57.3-127.72-127.73s57.29-127.72 127.72-127.72 127.72 57.29 127.72 127.72-57.29 127.73-127.72 127.73zm0-289.94c-89.44 0-162.21 72.77-162.21 162.21 0 89.45 72.77 162.22 162.21 162.22s162.21-72.77 162.21-162.22c0-89.44-72.77-162.21-162.21-162.21"/>
        <path d="m7050.1 2806.8c-70.43 0-127.72-57.3-127.72-127.73s57.29-127.72 127.72-127.72 127.72 57.29 127.72 127.72-57.29 127.73-127.72 127.73zm0-289.94c-89.44 0-162.21 72.77-162.21 162.21 0 89.45 72.77 162.22 162.21 162.22s162.21-72.77 162.21-162.22c0-89.44-72.77-162.21-162.21-162.21"/>
       </g>
      </g>
     </g>
    </g>
   </g>
   <path d="m12.541 90.301a34.151 34.151 0 0 1-34.151 34.151 34.151 34.151 0 0 1-34.151-34.151 34.151 34.151 0 0 1 34.151-34.151 34.151 34.151 0 0 1 34.151 34.151z" fill="none" stroke="#fff" stroke-width="2.5726"/>
  </g>
  <text transform="scale(.99262 1.0074)" x="211.23615" y="87.500183" fill="#ffffff" font-family="VALORANT" font-size="61.892px" stroke-width="1.5473" style="font-variant-caps:normal;font-variant-east-asian:normal;font-variant-ligatures:normal;font-variant-numeric:normal;line-height:1.25" xml:space="preserve"><tspan x="211.23615" y="87.500183" fill="#ffffff" font-family="VALORANT" font-size="61.892px" stroke-width="1.5473" style="font-variant-caps:normal;font-variant-east-asian:normal;font-variant-ligatures:normal;font-variant-numeric:normal">Frontend </tspan></text>
  <text transform="scale(.90906 1.1)" x="232.21834" y="125.95132" fill="#ffffff" font-family="VALORANT" font-size="45.537px" stroke-width="1.1384" style="font-variant-caps:normal;font-variant-east-asian:normal;font-variant-ligatures:normal;font-variant-numeric:normal;line-height:1.25" xml:space="preserve"><tspan x="232.21834" y="125.95132" fill="#ffffff" font-family="VALORANT" font-size="45.537px" stroke-width="1.1384" style="font-variant-caps:normal;font-variant-east-asian:normal;font-variant-ligatures:normal;font-variant-numeric:normal">Online Store</tspan></text>
 </g>
</svg>
